<svg width="20" height="20" viewBox="0 0 20 20" fill="none" xmlns="http://www.w3.org/2000/svg">
<path fill-rule="evenodd" clip-rule="evenodd" d="M16.2961 9.97C15.9561 10.59 15.2961 11 14.5461 11H7.09609L5.99609 13H17.9961V15H5.99609C4.47609 15 3.51609 13.37 4.24609 12.03L5.59609 9.59L1.99609 2H-0.00390625V0H3.26609L4.20609 2H19.0061C19.7661 2 20.2461 2.82 19.8761 3.48L16.2961 9.97ZM17.3061 4H5.15609L7.52609 9H14.5461L17.3061 4ZM5.99609 16C4.89609 16 4.00609 16.9 4.00609 18C4.00609 19.1 4.89609 20 5.99609 20C7.09609 20 7.99609 19.1 7.99609 18C7.99609 16.9 7.09609 16 5.99609 16ZM14.0061 18C14.0061 16.9 14.8961 16 15.9961 16C17.0961 16 17.9961 16.9 17.9961 18C17.9961 19.1 17.0961 20 15.9961 20C14.8961 20 14.0061 19.1 14.0061 18Z" fill="#4B4B4B"/>
</svg>
